<svg xmlns="http://www.w3.org/2000/svg" width="9" height="15" viewBox="0 0 9 15">
    <path fill="#F8CED6" fill-rule="nonzero" d="M8.863 10.673c-.14 2.147-1.306 3.244-2.38 3.78-.14.07-.28-.093-.186-.21.863-1.376.326-3.056-.654-4.363a9.284 9.284 0 0 1-1.376-2.917s-.7 1.33-1.844 3.874c-.676 1.54-.233 2.73.21 3.43.094.14-.07.28-.186.21-.7-.374-1.424-1.027-1.937-2.1-.28-.56-1.027-2.684.933-5.414C3.613 4 3.66 1.527 3.613.663c0-.14.14-.21.234-.14.28.21.536.49.746.747.817 1.073 1.19 2.38 1.19 3.64 0 .77.07 1.4.21 1.75.35.91.934.513.84-1.073 0-.14.14-.21.257-.117.327.303.91.98 1.4 2.45.35 1.19.42 2.1.373 2.753z"/>
</svg>
