<svg xmlns="http://www.w3.org/2000/svg" width="26" height="26" viewBox="0 0 26 26">
    <g fill="#000" fill-rule="nonzero">
        <path d="M.867 12.12h10.4V7.785h.866v4.333h1.734V7.786l.866.001v4.332h10.4c.867 0 .867-.566.867-.866V7.786c0-.3 0-.867-.867-.867h-7.16c1.154-1.733 2.241-2.749 2.241-4.025 0-1.711-1.071-2.8-2.935-2.8-.818 0-3.032.242-4.063 3.216C12.186.335 9.97.012 9.153.012c-1.863 0-2.936 1.184-2.936 2.895 0 1.276 1.087 2.278 2.242 4.012H.867C0 6.919 0 7.485 0 7.785v3.467c0 .302 0 .867.867.867zM17.28 1.285c1.64 0 1.852.967 1.852 1.716 0 1.541-2.44 3.917-3.206 3.917h-2.15c.162-5.2 2.483-5.633 3.504-5.633zM7.303 2.894c0-.749.211-1.5 1.852-1.5 1.02 0 3.34.325 3.504 5.525h-2.15c-.767 0-3.206-2.483-3.206-4.025zM11.267 12.986H.867V25.12c0 .3 0 .867.866.867h9.534v-13zM14.733 12.987v13h9.534c.866 0 .866-.566.866-.867V12.986l-10.4.001zM12.133 12.986h1.734v13h-1.734z"/>
    </g>
</svg>
