<svg xmlns="http://www.w3.org/2000/svg" width="71" height="23" viewBox="0 0 71 23">
    <path fill="#1A1A1A" fill-rule="evenodd" d="M.19 1h3.9v7.8L11.26 1h4.8l-8.52 9.39L16.66 22h-4.95L4.09 11.98V22H.19V1zm33.94 21h-3.72v-2.43c-1.11 1.59-2.73 2.67-4.68 2.67-2.7 0-4.65-1.53-4.65-4.56V6.88h3.72v9.69c0 1.8.9 2.49 2.16 2.49 1.8 0 3.45-2.16 3.45-6.15V6.88h3.72V22zM40.62.76h3.72V22h-3.72V.76zM59.29 18.7l.87 3c-.84.39-1.65.54-2.46.54-3.42 0-5.55-1.83-5.55-5.58v-6.6h-2.34V6.88h2.34V3.1L55.87.76v6.12h3.99v3.18h-3.99v6.54c0 1.86.72 2.46 1.98 2.46.51 0 .93-.09 1.44-.36zm6.28.96c0-1.44 1.08-2.52 2.52-2.52s2.52 1.08 2.52 2.52-1.08 2.52-2.52 2.52-2.52-1.08-2.52-2.52z"/>
</svg>
