<svg xmlns="http://www.w3.org/2000/svg" width="18" height="16" viewBox="0 0 18 16">
    <g fill="none" fill-rule="nonzero">
        <path fill="#FFEEF2" d="M12.783 5.663a2.087 2.087 0 0 1-1.48.613 2.094 2.094 0 1 1 1.48-3.573l.013.015h2.406l.097-2.531-7.696.296L.795 7.29a2.1 2.1 0 0 0 0 2.96l4.44 4.44a2.1 2.1 0 0 0 2.96 0l6.808-6.808.086-2.235h-2.292l-.014.015z"/>
        <path fill="#FFEEF2" d="M12.205 3.66a1.036 1.036 0 0 0-.162-.217 1.04 1.04 0 0 0-.74-.306 1.047 1.047 0 1 0 .74 1.786c.066-.066.117-.14.162-.217h5.61V3.66h-5.61z"/>
        <path fill="#F31D28" stroke="#F31D28" stroke-width=".3" d="M5.321 6.468l.85-.85-.164-.814-3.189 3.19.164.813.553-.553c.561-.56 1.122-1.035 1.798-.773L3.819 8.994l.164.815 1.9-1.9c.354.355.601 1.186-.363 2.15l-.467.466.457.456 4.204.467.832-.832-4.35-.482c.753-.84 1.055-2.03.381-2.92l.595-.594-.164-.815-.928.929a1.527 1.527 0 0 0-.759-.266z"/>
    </g>
</svg>
