<svg xmlns="http://www.w3.org/2000/svg" width="22" height="21" viewBox="0 0 22 21">
    <g fill="none" fill-rule="nonzero">
        <path fill="#F5E3E7" stroke="#1A1A1A" stroke-width="1.5" d="M1.486 12.122l7.721 7.722L20.342 8.71l-.598-7.124L12.62.988z"/>
        <path fill="#1A1A1A" d="M14.454 7.554c.15-.003.302-.005.378-.082.151-.002.304-.156.381-.232a1 1 0 0 0 .314-.76c.005-.301-.066-.526-.289-.748-.074-.074-.222-.223-.373-.22-.524-.218-1.206.02-1.441.552-.003.15-.156.304-.159.455-.002.15-.005.301.07.375.293.448.667.668 1.119.66z"/>
    </g>
</svg>
