<svg xmlns="http://www.w3.org/2000/svg" width="21" height="24" viewBox="0 0 21 24">
    <g fill="none" fill-rule="evenodd">
        <path fill="#F5E3E7" fill-rule="nonzero" stroke="#000" d="M10.289 1.006a.68.68 0 0 0-.043.043c-2.222.836-5.668 2.208-8.535 2.208a.68.68 0 0 0-.68.68c0 10.888 4.6 15.928 9.13 18.684a.68.68 0 0 0 .68 0c4.482-2.726 9.13-7.825 9.13-18.685a.68.68 0 0 0-.68-.68c-3.812 0-6.549-1.432-8.535-2.207a.68.68 0 0 0-.467-.043z"/>
        <path fill="#1A1A1A" d="M12.625 8.31l-2.973 2.93-1.274-1.231-.934.977 1.698 1.698.51.467.467-.467 3.44-3.397z"/>
    </g>
</svg>
