<svg xmlns="http://www.w3.org/2000/svg" width="60" height="9" viewBox="0 0 60 9">
    <g fill="none" fill-rule="evenodd">
        <path fill="#000" d="M55.263 7.105L52.48 8.57l.532-3.1-2.253-2.196 3.113-.452L55.263 0l1.392 2.82 3.113.453-2.252 2.196.531 3.1zM42.632 7.105L39.847 8.57l.532-3.1-2.252-2.196 3.112-.452L42.632 0l1.392 2.82 3.113.453-2.253 2.196.532 3.1z"/>
        <path fill="#ECA8B5" d="M30 7.105L27.216 8.57l.531-3.1-2.252-2.196 3.113-.452L30 0l1.392 2.82 3.113.453-2.252 2.196.531 3.1zM17.368 7.105L14.584 8.57l.532-3.1-2.253-2.196 3.113-.452L17.368 0l1.393 2.82 3.112.453-2.252 2.196.532 3.1zM4.737 7.105L1.953 8.57l.531-3.1L.232 3.273l3.113-.452L4.737 0l1.392 2.82 3.113.453L6.989 5.47l.532 3.1z"/>
    </g>
</svg>
