<svg xmlns="http://www.w3.org/2000/svg" width="118" height="16" viewBox="0 0 118 16">
    <g fill="none" fill-rule="evenodd">
        <path fill="#000" d="M89 0h29v16H89z"/>
        <text fill="#FFF" font-family="Lato-Black, Lato" font-size="11" font-weight="700" transform="translate(89)">
            <tspan x="6.322" y="11">4.0</tspan>
        </text>
        <g>
            <path fill="#E38E9E" d="M0 0h16v16H0V0zm8 10.5l2.939 1.545-.561-3.272 2.377-2.318-3.286-.478L8 3 6.53 5.977l-3.285.478 2.377 2.318-.56 3.272L8 10.5zM17 0h16v16H17V0zm8 10.5l2.939 1.545-.561-3.272 2.377-2.318-3.286-.478L25 3l-1.47 2.977-3.285.478 2.377 2.318-.56 3.272L25 10.5zM34 0h16v16H34V0zm8 10.5l2.939 1.545-.561-3.272 2.377-2.318-3.286-.478L42 3l-1.47 2.977-3.285.478 2.377 2.318-.56 3.272L42 10.5zM51 0h16v16H51V0zm8 10.5l2.939 1.545-.561-3.272 2.377-2.318-3.286-.478L59 3l-1.47 2.977-3.285.478 2.377 2.318-.56 3.272L59 10.5z"/>
            <path fill="#959595" d="M68 0h16v16H68V0zm8 10.5l2.939 1.545-.561-3.272 2.377-2.318-3.286-.478L76 3l-1.47 2.977-3.285.478 2.377 2.318-.56 3.272L76 10.5z"/>
        </g>
    </g>
</svg>
