<svg xmlns="http://www.w3.org/2000/svg" width="12" height="11" viewBox="0 0 12 11">
    <path fill="#000" fill-rule="evenodd" d="M11.065 8.823c-1.782-.671-3.76-1.505-3.926-2.025v-.545c.37-.368.661-.882.834-1.485a.869.869 0 0 0 .174-1.28v-1.22c0-1.26-.72-2.121-2.364-2.121-1.602 0-2.364.862-2.364 2.121v1.22a.87.87 0 0 0 .174 1.28c.173.603.465 1.117.834 1.486v.545C4.262 7.317 2.283 8.15.501 8.823a.388.388 0 0 0-.252.363v1.363a.39.39 0 0 0 .392.388h10.284a.39.39 0 0 0 .393-.388V9.186c0-.161-.1-.306-.253-.363z"/>
</svg>
