<svg xmlns="http://www.w3.org/2000/svg" width="22" height="21" viewBox="0 0 22 21">
    <g fill="none" fill-rule="evenodd" stroke="#1A1A1A" stroke-linecap="round" stroke-linejoin="round" stroke-width="1.3">
        <path d="M19.815 11.452h-1.687M18.89 14.212H17.68M6.935 17.862c4.904 1.674 10.744 1.571 10.744 1.571 2.24 0 1.764-2.461.144-2.461h-.646"/>
        <path fill="#F5E3E7" d="M6.935 9.526s4.624-3.635 4.292-7.437c-.251-2.884 5.103-.678 2.123 6.603h6.607c1.844 0 1.838 2.76 0 2.76h-.142c1.858 0 1.809 2.76 0 2.76h-.924c1.842 0 1.837 2.76 0 2.76h-1.067l1.067 1.192-2.743.91-7.935-.91H6.935V9.526zM1.457 8.674h5.478v10.957H1.457z"/>
    </g>
</svg>
