<svg xmlns="http://www.w3.org/2000/svg" width="20" height="18" viewBox="0 0 20 18">
    <g fill="none" fill-rule="evenodd">
        <path stroke="#1A1A1A" stroke-linecap="round" stroke-width="1.3" d="M9.8 16.369a.347.347 0 0 1-.262.118.359.359 0 0 1-.264-.117L2.167 8.51a.384.384 0 0 1-.038-.052A4.62 4.62 0 0 1 1 5.435 4.64 4.64 0 0 1 5.634.8c1.582 0 3.045.815 3.892 2.123A4.646 4.646 0 0 1 13.418.8a4.64 4.64 0 0 1 4.635 4.635"/>
        <path fill="#000" stroke="#000" stroke-width=".3" d="M16.099 12.375H19v.829h-2.901v2.901h-.83v-2.901h-2.9v-.829h2.9V9.474h.83v2.901z"/>
    </g>
</svg>
